<?xml version="1.0" encoding="utf-8"?>
<svg height="1024" preserveAspectRatio="none" viewBox="0 0 1024 1024" width="1024" xmlns="http://www.w3.org/2000/svg">
  <g transform="matrix(0.295522, 0, 0, 0.26802, 264.714447, 179.108276)" style="">
    <path d="m800.7 2245.5q32.75-77.45 32.75-162.15v-416.65h-416.65q-84.7 0-162.15 32.75-74.75 31.65-132.4 89.35-57.7 57.65-89.35 132.4-32.75 77.45-32.75 162.15 0 84.7 32.75 162.15 31.65 74.75 89.35 132.45 57.65 57.65 132.4 89.3 77.4 32.75 162.15 32.75 84.7 0 162.15-32.75 74.75-31.65 132.45-89.3 57.65-57.7 89.3-132.45z" fill="#0acf83"/>
    <path d="m254.65 866.1q-74.75 31.65-132.4 89.35-57.7 57.65-89.35 132.4-32.75 77.45-32.75 162.15 0 84.7 32.75 162.15 31.65 74.75 89.35 132.45 57.65 57.7 132.4 89.35 77.45 32.75 162.15 32.75h416.65v-833.35h-416.65q-84.7 0-162.15 32.75z" fill="#a259ff"/>
    <path d="m254.65 32.75q-74.75 31.65-132.4 89.35-57.7 57.7-89.35 132.45-32.75 77.45-32.75 162.15 0 84.7 32.75 162.15 31.65 74.75 89.35 132.45 57.65 57.65 132.4 89.3 77.4 32.75 162.15 32.75h416.65v-833.35h-416.65q-84.7 0-162.15 32.75z" fill="#f24e1e"/>
    <path d="m1544.75 122.1q-57.7-57.7-132.45-89.35-77.45-32.75-162.15-32.75h-416.7v833.35h416.7q84.7 0 162.15-32.75 74.75-31.65 132.45-89.3 57.65-57.7 89.3-132.45 32.75-77.45 32.75-162.15 0-84.75-32.75-162.15-31.65-74.75-89.3-132.45z" fill="#ff7262"/>
    <path d="m1544.75 955.45q-57.7-57.7-132.45-89.35-77.45-32.75-162.15-32.75-84.7 0-162.15 32.75-74.75 31.65-132.45 89.35-57.7 57.65-89.35 132.4-32.75 77.45-32.75 162.15 0 84.7 32.75 162.15 31.65 74.75 89.35 132.45 57.7 57.7 132.45 89.35 77.45 32.75 162.15 32.75 84.7 0 162.15-32.75 74.75-31.65 132.45-89.35 57.65-57.7 89.3-132.45 32.75-77.45 32.75-162.15 0-84.75-32.75-162.15-31.65-74.75-89.3-132.4z" fill="#1abcfe"/>
  </g>
</svg>