<?xml version="1.0" encoding="utf-8"?>
<svg height="48pt" viewBox="0 0 48 48" width="48pt" xmlns="http://www.w3.org/2000/svg">
  <linearGradient id="a" gradientTransform="matrix(38.376587, 0, 0, 37.217692, 4.450534, 4.848112)" gradientUnits="userSpaceOnUse" x1=".67181" x2=".422149" y1=".02057" y2=".960165">
    <stop offset="0" stop-color="#1a6cff"/>
    <stop offset="1" stop-color="#c522ff"/>
  </linearGradient>
  <path d="M 28.543 37.907 C 30.852 37.176 32.978 35.92 34.73 34.228 C 37.674 31.365 39.333 27.493 39.333 23.46 C 39.333 19.422 37.674 15.547 34.73 12.687 C 31.782 9.843 27.782 8.235 23.612 8.235 C 22.648 8.235 21.871 7.474 21.871 6.54 C 21.871 5.608 22.648 4.85 23.612 4.85 C 28.707 4.85 33.597 6.812 37.203 10.299 C 40.801 13.791 42.826 18.529 42.826 23.46 C 42.826 28.391 40.801 33.124 37.203 36.622 C 33.597 40.105 28.707 42.069 23.612 42.069 C 18.768 42.069 14.099 40.289 10.546 37.101 C 6.988 33.905 4.816 29.522 4.457 24.846 C 4.381 23.912 5.106 23.1 6.068 23.032 C 7.026 22.964 7.868 23.662 7.941 24.595 C 8.237 28.423 10.01 32.013 12.917 34.625 C 15.02 36.514 17.601 37.795 20.37 38.35 C 20.37 37.187 20.366 36.176 20.366 35.881 C 16.067 36.816 15.337 33.816 15.337 33.816 C 14.634 32.032 13.621 31.561 13.621 31.561 C 12.22 30.602 13.724 30.62 13.724 30.62 C 15.275 30.727 16.094 32.211 16.094 32.211 C 17.472 34.568 19.518 33.887 20.398 33.492 C 20.535 32.496 20.807 31.812 21.246 31.429 C 17.813 31.039 14.656 29.717 14.656 23.803 C 14.656 22.123 14.807 20.745 15.797 19.667 C 15.637 19.278 15.107 17.714 15.947 15.588 C 17.425 15.518 18.731 17.086 20.047 17.689 C 21.46 17.287 23.126 17.123 24.409 17.13 C 25.7 17.145 27.427 17.336 28.62 17.689 C 29.616 17.01 31.137 15.497 32.755 15.555 L 32.999 15.588 C 33.845 17.714 33.31 19.278 33.154 19.667 C 34.146 20.745 34.252 22.123 34.252 23.803 C 34.252 29.728 30.889 31.038 27.442 31.42 C 27.999 31.892 28.549 32.837 28.549 34.276 C 28.549 34.908 28.543 36.333 28.543 37.907 Z M 16.306 9.976 C 17.16 9.542 17.488 8.519 17.039 7.692 C 16.59 6.863 15.534 6.548 14.681 6.981 C 11.05 8.831 8.113 11.768 6.324 15.347 C 5.897 16.188 6.258 17.201 7.128 17.607 C 7.996 18.017 9.042 17.666 9.467 16.827 C 10.936 13.891 13.327 11.497 16.306 9.976 Z" fill="url(#a)" fill-rule="evenodd" style=""/>
</svg>