<?xml version="1.0" standalone="no"?>
<!DOCTYPE svg PUBLIC "-//W3C//DTD SVG 20010904//EN"
 "http://www.w3.org/TR/2001/REC-SVG-20010904/DTD/svg10.dtd">
<svg version="1.0" xmlns="http://www.w3.org/2000/svg"
 width="597.000000pt" height="601.000000pt" viewBox="0 0 597.000000 601.000000"
 preserveAspectRatio="xMidYMid meet">

<g transform="translate(0.000000,601.000000) scale(0.100000,-0.100000)"
fill="#000000" stroke="none">
<path d="M4075 4226 c-6 -6 -34 -42 -63 -80 -29 -37 -59 -75 -67 -83 -8 -8
-15 -18 -15 -21 0 -4 -10 -18 -23 -32 -12 -14 -43 -52 -69 -85 -25 -33 -54
-70 -64 -82 -11 -11 -26 -31 -34 -43 -14 -20 -35 -47 -59 -76 -5 -6 -46 -60
-90 -120 -44 -60 -84 -113 -89 -119 -18 -23 -133 -180 -207 -284 -75 -104
-105 -131 -105 -96 0 9 -7 18 -15 21 -8 4 -15 12 -15 19 0 7 -3 15 -7 17 -8 3
-113 145 -113 152 0 3 -9 15 -20 28 -11 12 -58 77 -105 143 -46 66 -90 128
-97 138 -9 12 -26 17 -55 17 -24 0 -43 -2 -43 -5 0 -3 26 -41 58 -84 31 -44
64 -89 72 -101 8 -12 51 -72 96 -134 44 -61 110 -153 146 -204 l67 -94 -102
-138 c-56 -76 -156 -213 -222 -304 -66 -92 -126 -173 -132 -180 -22 -25 -14
-36 27 -36 40 0 56 15 120 110 8 12 20 28 25 34 6 6 26 34 45 61 19 28 66 93
105 145 39 52 94 128 121 167 27 40 54 73 59 73 6 0 39 -41 75 -91 36 -50 103
-144 150 -209 47 -65 92 -128 100 -140 8 -12 20 -28 26 -34 6 -6 15 -18 20
-27 5 -9 22 -33 38 -53 25 -30 36 -36 68 -36 27 0 38 4 38 15 0 8 -4 15 -10
15 -5 0 -10 7 -10 15 0 8 -9 23 -20 32 -11 10 -20 21 -20 26 0 5 -6 14 -12 21
-7 8 -20 24 -28 36 -8 12 -21 28 -27 36 -7 7 -13 16 -13 20 0 4 -7 14 -16 23
-8 9 -81 107 -160 219 l-145 202 93 136 c51 75 98 145 104 155 6 11 20 30 30
42 11 12 51 69 89 127 72 108 81 121 103 145 6 7 12 16 12 20 0 5 39 64 50 75
14 14 50 70 50 79 0 5 3 11 8 13 8 3 19 19 113 158 35 52 68 100 74 106 5 6
17 22 25 34 8 12 23 33 33 45 9 13 17 28 17 34 0 6 4 11 9 11 8 0 24 30 19 35
-2 2 -8 -2 -13 -9z"/>
<path d="M5723 4111 c18 -44 33 -78 35 -76 8 8 -51 155 -62 155 -2 0 10 -36
27 -79z"/>
<path d="M5842 3770 c0 -8 4 -26 8 -40 6 -20 8 -21 8 -5 0 11 -3 29 -8 40 -5
12 -8 14 -8 5z"/>
<path d="M5872 3640 c0 -14 2 -19 5 -12 2 6 2 18 0 25 -3 6 -5 1 -5 -13z"/>
<path d="M722 3003 l3 -638 38 -3 37 -3 0 580 c0 617 1 627 45 545 17 -32 29
-48 65 -91 5 -7 10 -16 10 -21 0 -5 9 -20 20 -33 33 -41 35 -43 60 -84 13 -22
27 -42 30 -45 3 -3 37 -52 75 -110 39 -58 75 -110 80 -117 6 -7 16 -19 23 -27
6 -8 12 -18 12 -21 0 -6 40 -66 51 -75 3 -3 47 -68 99 -145 51 -77 106 -156
122 -176 15 -20 28 -40 28 -44 0 -4 14 -24 30 -45 17 -21 30 -43 30 -49 0 -6
5 -11 10 -11 6 0 14 -8 17 -17 4 -9 12 -24 19 -33 7 -8 75 -98 150 -200 76
-102 143 -190 148 -196 6 -6 18 -22 26 -34 22 -33 55 -76 90 -119 11 -13 20
-28 20 -33 0 -4 5 -8 10 -8 6 0 -1 17 -15 38 -14 20 -28 44 -32 52 -4 8 -9 17
-13 20 -3 3 -159 235 -345 515 -186 281 -342 512 -347 513 -4 2 -8 8 -8 13 0
9 -56 94 -77 117 -7 7 -13 18 -13 23 0 6 -6 16 -12 23 -7 8 -20 24 -28 36 -8
12 -23 33 -32 45 -10 13 -18 28 -18 34 0 6 -3 11 -8 11 -4 0 -16 16 -27 36
-10 19 -27 45 -37 56 -10 12 -18 27 -18 33 0 7 -7 15 -15 19 -8 3 -15 12 -15
21 0 8 -4 15 -10 15 -5 0 -12 11 -16 24 -3 14 -12 27 -20 30 -8 3 -14 12 -14
21 0 8 -4 15 -9 15 -5 0 -13 10 -17 22 -3 12 -12 28 -18 34 -6 7 -28 37 -49
68 -38 55 -39 56 -88 56 l-49 0 2 -637z"/>
<path d="M1790 3000 l0 -640 431 0 430 0 -3 38 -3 37 -393 3 -392 2 2 273 3
272 363 3 362 2 0 35 0 35 -362 2 -363 3 0 250 0 250 385 5 385 5 0 30 0 30
-422 3 -423 2 0 -640z"/>
<path d="M3760 3605 l0 -35 225 0 225 0 0 -606 0 -605 38 3 37 3 3 602 2 603
223 2 222 3 0 30 0 30 -487 3 -488 2 0 -35z"/>
<path d="M5892 3540 c0 -19 2 -27 5 -17 2 9 2 25 0 35 -3 9 -5 1 -5 -18z"/>
<path d="M5902 3480 c0 -14 2 -19 5 -12 2 6 2 18 0 25 -3 6 -5 1 -5 -13z"/>
<path d="M5915 3395 c23 -228 27 -314 23 -490 -3 -110 -2 -186 2 -170 21 84 6
572 -21 675 -8 31 -8 29 -4 -15z"/>
<path d="M5068 2717 c-29 -24 -36 -48 -25 -88 5 -20 18 -30 54 -43 86 -31 93
-35 93 -55 0 -11 -9 -25 -21 -32 -26 -14 -88 -3 -96 17 -7 19 -43 18 -43 -1 0
-9 12 -27 26 -40 41 -38 112 -35 153 6 35 34 39 64 13 95 -19 23 -63 44 -91
44 -10 0 -29 8 -41 18 l-23 19 22 22 c18 18 30 22 55 17 17 -3 36 -13 42 -21
10 -13 44 -22 44 -11 0 20 -22 56 -35 56 -8 0 -15 5 -15 10 0 20 -84 11 -112
-13z"/>
<path d="M4929 2723 c0 -4 0 -44 1 -89 1 -44 -2 -92 -5 -106 -9 -34 -39 -41
-69 -17 -52 41 -78 9 -30 -36 37 -34 89 -34 121 1 22 24 23 31 21 137 -3 97
-5 112 -20 115 -10 2 -18 0 -19 -5z"/>
<path d="M5908 2577 c-49 -343 -177 -724 -340 -1012 -234 -415 -565 -772 -953
-1029 -663 -439 -1472 -595 -2244 -431 -136 29 -155 30 -85 6 75 -27 294 -60
539 -82 279 -25 708 20 952 100 48 16 120 37 158 46 39 10 102 32 140 50 87
40 180 83 265 121 99 44 401 241 495 322 121 106 319 300 394 387 47 55 94
109 104 120 10 11 30 40 44 65 15 25 36 56 48 70 79 89 236 379 323 595 22 55
98 280 113 335 31 113 82 460 68 460 -2 0 -12 -55 -21 -123z"/>
<path d="M4705 2500 c-9 -15 4 -50 20 -50 16 0 29 35 20 50 -3 5 -12 10 -20
10 -8 0 -17 -5 -20 -10z"/>
<path d="M1270 573 c14 -9 27 -20 30 -23 12 -17 250 -156 250 -146 0 2 -26 19
-57 37 -32 18 -97 59 -145 91 -48 32 -91 58 -95 58 -4 0 4 -8 17 -17z"/>
<path d="M1667 339 c7 -7 15 -10 18 -7 3 3 -2 9 -12 12 -14 6 -15 5 -6 -5z"/>
<path d="M1830 266 c0 -9 36 -26 124 -58 119 -43 157 -55 196 -62 19 -3 46 -8
60 -11 14 -3 -58 23 -160 58 -102 35 -193 67 -202 71 -10 5 -18 6 -18 2z"/>
</g>
</svg>
