<?xml version="1.0" encoding="utf-8"?>
<svg viewBox="0 0 32 32" xmlns="http://www.w3.org/2000/svg">
  <path d="M 7.794 12.194 C 8.878 6.902 11.59 4.258 15.925 4.258 C 22.429 4.258 23.242 10.21 26.494 11.201 C 28.663 11.862 30.558 10.87 32.185 8.226 C 31.101 13.517 28.391 16.161 24.055 16.161 C 17.551 16.161 16.738 10.21 13.486 9.217 C 11.317 8.557 9.42 9.547 7.794 12.194 Z M -0.336 24.097 C 0.748 18.806 3.459 16.161 7.794 16.161 C 14.3 16.161 15.112 22.113 18.364 23.104 C 20.532 23.766 22.429 22.774 24.055 20.128 C 22.971 25.419 20.26 28.064 15.925 28.064 C 9.42 28.064 8.607 22.113 5.356 21.12 C 3.188 20.461 1.29 21.452 -0.336 24.097 Z" fill="#44a8b3" style=""/>
</svg>