<?xml version="1.0" encoding="utf-8"?>
<svg viewBox="0 0 32 32" xmlns="http://www.w3.org/2000/svg">
  <path d="m9 13.7q1.4-5.6 7-5.6c5.6 0 6.3 4.2 9.1 4.9q2.8.7 4.9-2.1-1.4 5.6-7 5.6c-5.6 0-6.3-4.2-9.1-4.9q-2.8-.7-4.9 2.1zm-7 8.4q1.4-5.6 7-5.6c5.6 0 6.3 4.2 9.1 4.9q2.8.7 4.9-2.1-1.4 5.6-7 5.6c-5.6 0-6.3-4.2-9.1-4.9q-2.8-.7-4.9 2.1z" fill="#44a8b3"/>
  <text style="fill: rgb(51, 51, 51); font-family: Arial, sans-serif; font-size: 31.8134px; font-weight: 700; white-space: pre;" transform="matrix(0.158454, 0, 0, 0.184247, 1.831168, 24.539621)"><tspan x="5.757" y="27.17">Tailwindcss</tspan><tspan x="5.757" dy="1em">​</tspan></text>
</svg>